<?xml version="1.0" standalone="no"?>
<!DOCTYPE svg PUBLIC "-//W3C//DTD SVG 20010904//EN"
 "http://www.w3.org/TR/2001/REC-SVG-20010904/DTD/svg10.dtd">
<svg version="1.0" xmlns="http://www.w3.org/2000/svg"
 width="1080.000000pt" height="648.000000pt" viewBox="0 0 1080.000000 648.000000"
 preserveAspectRatio="xMidYMid meet" 
  fill="currentColor"
>

<g transform="translate(0.000000,648.000000) scale(0.100000,-0.100000)"
fill="#000000" stroke="none">
<path d="M5366 6093 c-80 -22 -90 -23 -105 -9 -20 18 -37 20 -45 7 -3 -5 3
-62 14 -127 11 -66 20 -127 20 -136 0 -29 -47 -22 -91 13 -49 39 -91 51 -129
37 -35 -12 -50 -35 -50 -77 0 -26 -5 -32 -32 -39 -28 -7 -35 -15 -47 -54 -13
-41 -17 -46 -50 -52 -20 -3 -77 -6 -128 -6 -114 0 -143 -10 -143 -47 1 -16 7
-39 15 -53 26 -45 19 -68 -25 -86 -26 -11 -51 -33 -74 -64 l-35 -49 80 -32
c104 -43 90 -51 -104 -57 -179 -6 -192 -12 -162 -84 6 -15 1 -18 -31 -18 -52
0 -85 -19 -97 -53 -5 -16 -7 -30 -5 -33 3 -2 49 -10 104 -18 55 -8 115 -21
134 -29 43 -18 108 -84 94 -96 -18 -16 -192 -141 -197 -141 -3 0 -8 15 -11 34
-5 27 -14 36 -49 50 -23 10 -65 20 -94 23 -46 5 -60 1 -135 -35 -45 -23 -105
-47 -131 -53 -62 -15 -102 -55 -123 -123 l-17 -54 -171 147 c-390 333 -559
476 -567 479 -6 3 -1830 -1646 -1919 -1736 -33 -33 -100 -78 981 665 504 347
921 633 926 636 9 6 766 -589 774 -608 2 -5 -20 -14 -49 -19 -58 -10 -57 -8
-37 -81 4 -15 -2 -24 -25 -37 -35 -20 -38 -41 -9 -61 20 -14 20 -15 -13 -40
l-32 -26 43 -19 c59 -27 89 -17 166 58 35 33 67 60 73 60 5 0 17 -9 27 -20 17
-19 16 -22 -32 -97 -76 -118 -86 -141 -78 -179 9 -51 27 -55 135 -27 90 23
105 24 282 18 218 -8 266 1 345 64 63 50 83 55 129 36 37 -15 39 -15 112 21
112 55 134 53 284 -33 68 -39 157 -88 198 -108 196 -97 295 -208 331 -370 19
-86 17 -402 -5 -528 -18 -110 -48 -205 -78 -255 -27 -44 -100 -87 -126 -73
-31 16 -83 80 -146 176 -33 50 -70 107 -85 128 -29 44 -98 107 -118 107 -30 0
-10 17 34 29 65 17 136 90 157 162 34 112 12 204 -64 272 -85 77 -109 81 -475
84 -239 1 -312 -1 -290 -9 17 -6 40 -20 53 -31 l22 -20 0 -432 0 -432 -24 -22
c-57 -54 -153 -29 -218 56 -20 27 -108 149 -197 271 l-160 224 125 148 c151
180 190 216 246 230 24 6 48 13 53 15 6 2 -69 4 -165 4 -159 0 -172 -1 -142
-14 20 -9 32 -21 32 -33 0 -11 -79 -123 -175 -250 l-175 -231 126 -175 c69
-97 144 -191 165 -210 22 -18 69 -43 104 -55 62 -20 84 -21 413 -20 191 0 340
3 332 6 -62 22 -80 37 -90 72 -6 21 -10 198 -10 440 l0 403 84 -3 c66 -3 91
-9 113 -25 71 -53 96 -143 68 -248 -26 -101 -77 -146 -164 -146 -49 0 -52 -9
-10 -32 21 -13 39 -37 60 -85 130 -298 204 -370 394 -382 51 -3 97 -9 100 -13
4 -4 -14 -22 -40 -40 -26 -18 -55 -38 -64 -45 -13 -10 3 -12 85 -13 l101 0 63
50 63 51 86 -3 86 -3 3 -55 c5 -106 0 -101 104 -98 l92 3 12 50 c6 28 15 62
18 78 l6 27 103 0 103 0 49 -50 49 -50 74 0 74 0 -49 44 c-26 24 -44 48 -40
53 5 4 169 11 365 14 333 5 362 7 424 27 135 45 251 149 299 269 21 51 24 74
24 198 0 122 -3 147 -23 195 -45 112 -144 210 -252 251 -116 44 -167 49 -520
48 -184 -1 -326 -3 -315 -6 44 -11 83 -35 94 -59 16 -36 16 -823 -1 -859 -7
-15 -25 -33 -40 -41 -27 -14 -32 -13 -98 26 -51 30 -75 51 -89 78 -33 66 -44
177 -38 385 7 215 26 363 62 483 21 69 32 87 73 126 26 24 68 57 94 72 48 28
332 137 423 162 130 36 540 -23 614 -88 l34 -30 131 6 c156 9 260 -4 334 -40
42 -21 62 -25 95 -20 79 12 77 17 -39 111 -135 108 -142 128 -46 133 48 2 74
-2 106 -18 42 -20 106 -26 165 -14 17 4 31 9 31 13 0 3 -75 58 -165 121 -91
63 -165 116 -165 118 0 2 25 32 55 67 30 34 55 65 55 69 0 3 -33 6 -72 7 -40
1 -84 4 -98 8 l-24 7 24 17 c45 31 93 38 186 27 48 -6 119 -8 157 -4 l71 7
-34 29 c-86 73 -236 181 -288 207 -56 28 -128 52 -207 69 l-40 8 92 22 c166
40 240 47 325 29 41 -8 94 -25 118 -36 24 -11 45 -19 47 -17 4 4 -23 116 -29
120 -2 1 -25 11 -52 20 -26 10 -78 39 -115 63 -97 66 -128 80 -245 109 l-105
26 15 29 c21 42 55 60 124 66 l61 6 -33 34 c-49 51 -122 85 -196 91 l-64 5 6
36 c17 112 19 151 5 147 -8 -2 -26 -7 -41 -10 -28 -6 -28 -6 -28 48 0 74 -17
76 -58 7 -67 -111 -109 -136 -137 -81 -20 38 -20 35 20 60 37 23 65 65 65 99
0 14 -12 26 -37 36 -21 9 -50 28 -66 43 l-27 26 -55 -27 c-31 -15 -57 -27 -60
-27 -2 0 -2 13 1 30 4 16 3 41 0 56 -7 25 -10 26 -56 22 -48 -5 -48 -5 -54 27
-8 42 -32 63 -93 81 l-48 15 -62 -68 c-34 -37 -62 -71 -63 -75 0 -5 -4 -8 -9
-8 -6 0 -9 26 -9 59 0 32 -2 63 -6 70 -4 6 -30 11 -58 11 -36 0 -65 8 -100 27
-57 31 -68 47 -74 111 -3 41 -10 53 -54 94 l-50 48 -49 -10 c-28 -5 -78 -21
-113 -36 -35 -15 -97 -38 -138 -51 -81 -27 -161 -65 -200 -95 l-24 -19 -18 34
c-43 85 -165 157 -293 173 l-50 6 -42 -58 c-27 -37 -44 -52 -47 -43 -3 8 -15
44 -26 81 -12 38 -25 69 -28 71 -4 2 -47 -7 -96 -20z m-1461 -1528 l60 -17
-45 -23 c-51 -26 -47 -27 -135 50 l-40 35 50 -14 c28 -8 77 -22 110 -31z
m1606 -191 c30 -9 56 -18 57 -19 6 -6 -32 -65 -41 -65 -17 0 -97 61 -97 74 0
30 10 31 81 10z m251 -169 c67 -83 67 -83 45 -98 -50 -32 -110 -58 -123 -53
-26 10 -47 76 -41 129 6 43 34 108 47 106 3 0 35 -38 72 -84z m-390 6 c13 -15
43 -65 66 -109 41 -78 42 -81 23 -92 -18 -9 -34 3 -131 96 -61 59 -108 109
-105 112 5 5 71 18 107 21 9 0 27 -12 40 -28z m-185 -85 c26 -22 61 -101 50
-112 -6 -6 -140 98 -144 113 -4 10 14 17 54 22 6 0 25 -10 40 -23z m210 -202
c40 -54 73 -104 73 -109 0 -6 -9 -16 -19 -22 -18 -11 -26 -2 -90 103 -65 107
-78 141 -48 131 7 -2 44 -48 84 -103z m-230 36 c28 -12 64 -36 81 -53 30 -31
69 -107 55 -107 -9 0 -301 158 -328 178 -34 24 130 9 192 -18z m1243 -77 c-16
-72 -60 -129 -123 -158 -59 -28 -67 -23 -67 43 0 80 52 148 155 200 l40 20 3
-26 c2 -15 -1 -50 -8 -79z m-425 71 c48 -22 66 -25 111 -20 l54 6 0 -47 c0
-112 -54 -193 -128 -193 -76 0 -151 82 -152 164 0 36 35 116 51 116 3 0 32
-12 64 -26z m755 18 l54 -7 -44 -37 c-50 -44 -127 -75 -206 -84 l-55 -7 7 29
c10 45 38 88 65 101 26 14 90 15 179 5z m257 -601 c129 -57 203 -203 203 -402
0 -156 -33 -259 -109 -342 -66 -71 -121 -90 -278 -95 l-133 -4 0 437 0 437
133 -4 c110 -4 141 -8 184 -27z"/>
<path d="M2740 4145 l0 -85 85 0 85 0 0 85 0 85 -85 0 -85 0 0 -85z"/>
<path d="M2950 4145 l0 -85 85 0 85 0 0 85 0 85 -85 0 -85 0 0 -85z"/>
<path d="M2740 3925 l0 -85 85 0 85 0 0 85 0 85 -85 0 -85 0 0 -85z"/>
<path d="M2950 3925 l0 -85 85 0 85 0 0 85 0 85 -85 0 -85 0 0 -85z"/>
<path d="M1468 3640 c-311 -56 -498 -280 -498 -595 0 -178 51 -308 164 -420
130 -129 262 -177 486 -177 105 0 152 4 212 20 229 62 380 213 429 430 14 63
13 247 -2 308 -48 202 -206 360 -419 420 -64 18 -302 27 -372 14z m260 -75
c161 -48 258 -220 269 -475 7 -156 -12 -265 -62 -366 -81 -165 -231 -242 -393
-200 -141 36 -229 136 -278 316 -25 90 -25 319 -1 410 45 168 139 282 267 321
43 13 144 10 198 -6z"/>
<path d="M2694 3495 c-47 -135 -420 -934 -452 -968 -15 -15 -47 -34 -72 -42
-42 -13 -35 -14 130 -14 164 0 173 1 140 15 -62 27 -63 41 -14 158 l36 86 176
-2 176 -3 38 -93 c43 -104 41 -123 -15 -147 -28 -12 29 -14 433 -14 417 0 461
1 425 14 -22 8 -41 15 -42 15 -1 0 -9 13 -18 30 -13 24 -15 89 -15 422 0 241
4 407 10 430 11 37 29 53 79 69 14 4 -80 7 -209 7 -167 0 -225 -3 -200 -9 19
-6 45 -21 58 -35 l22 -25 0 -423 c0 -409 -1 -424 -20 -449 -39 -49 -121 -44
-173 11 -14 15 -125 235 -245 489 -261 547 -239 504 -248 478z m21 -538 c37
-87 65 -161 62 -163 -2 -3 -67 -3 -145 -2 l-140 3 71 167 c39 92 74 164 78
160 4 -4 37 -78 74 -165z"/>
<path d="M9425 3478 c-18 -7 -173 -14 -380 -17 -200 -3 -335 -9 -315 -14 19
-4 44 -17 57 -29 l23 -21 0 -432 0 -432 -22 -20 c-13 -12 -39 -26 -58 -31 -25
-7 81 -10 360 -11 l395 -1 31 150 c17 83 29 150 25 150 -3 0 -19 -27 -34 -60
-33 -72 -84 -125 -146 -154 -37 -17 -71 -21 -178 -24 l-133 -4 0 201 0 201 98
0 c53 0 114 -5 134 -10 43 -12 77 -54 85 -105 13 -79 23 -14 23 146 0 159 -10
213 -24 134 -8 -43 -55 -90 -97 -99 -17 -3 -74 -6 -125 -6 l-94 0 0 206 0 206
143 -4 c100 -2 151 -8 172 -18 42 -21 75 -75 75 -121 0 -22 5 -39 10 -39 6 0
10 52 10 135 0 74 -1 135 -2 134 -2 0 -16 -6 -33 -11z"/>
<path d="M7923 3461 c-81 -22 -95 -29 -172 -79 -141 -93 -218 -294 -190 -496
14 -103 40 -172 93 -244 133 -180 426 -245 699 -155 84 28 219 109 237 143 6
10 10 72 10 137 0 133 5 146 60 161 25 8 -24 10 -180 10 -132 0 -202 -3 -180
-8 56 -14 62 -29 58 -170 -4 -146 -14 -168 -101 -215 -109 -60 -254 -39 -335
49 -81 88 -112 188 -112 361 0 246 81 396 241 446 175 55 359 -17 424 -165 12
-28 27 -62 33 -76 8 -20 11 5 11 113 l1 137 -27 12 c-86 34 -184 50 -338 54
-136 4 -171 1 -232 -15z"/>
<path d="M9144 2339 c-86 -10 -154 -35 -218 -78 -204 -141 -209 -500 -8 -645
172 -126 459 -121 585 9 37 38 37 39 36 119 -1 102 -13 142 -23 74 -10 -65
-61 -163 -101 -194 -75 -57 -204 -71 -290 -30 -83 38 -134 107 -160 218 -39
166 4 346 102 427 83 69 213 79 311 26 56 -30 87 -67 113 -134 l18 -46 1 102
0 101 -62 21 c-54 18 -192 42 -223 39 -5 0 -42 -4 -81 -9z"/>
<path d="M1150 2323 c14 -3 35 -14 48 -26 22 -20 22 -21 22 -362 0 -341 0
-342 -22 -362 -13 -12 -34 -23 -48 -26 -14 -2 56 -4 155 -4 99 0 169 2 155 4
-14 3 -35 14 -47 26 -23 20 -23 21 -23 362 0 323 1 343 19 359 10 9 32 21 47
26 19 5 -36 8 -151 8 -99 0 -169 -3 -155 -5z"/>
<path d="M7400 2323 c14 -3 35 -14 48 -26 22 -20 22 -21 22 -362 0 -341 0
-342 -22 -362 -13 -12 -34 -23 -48 -26 -14 -2 109 -5 272 -6 l296 -1 22 98
c12 53 24 106 26 117 3 11 -7 -2 -22 -30 -59 -111 -102 -135 -249 -135 l-105
0 0 343 c0 343 0 344 23 364 12 12 33 23 47 26 14 2 -56 4 -155 4 -99 0 -169
-2 -155 -4z"/>
<path d="M8095 2323 c11 -3 30 -14 43 -26 22 -20 22 -21 22 -362 0 -369 0
-368 -55 -384 -19 -6 73 -10 262 -10 269 -1 292 0 297 17 8 25 46 200 46 209
0 5 -9 -10 -19 -33 -24 -54 -73 -108 -115 -128 -25 -12 -63 -16 -140 -16
l-106 0 0 338 c0 373 0 373 63 391 23 6 -20 9 -143 9 -96 0 -166 -2 -155 -5z"/>
<path d="M1618 1914 c4 -346 2 -358 -55 -367 -16 -2 44 -4 132 -5 114 0 151 2
128 9 -18 5 -37 18 -43 29 -6 12 -9 91 -8 210 l3 191 260 -229 260 -228 -3
309 c-2 170 -1 320 2 332 4 14 20 29 43 38 37 15 32 16 -122 16 -145 0 -157
-1 -128 -14 17 -7 36 -22 42 -34 11 -20 16 -391 6 -391 -7 0 -493 428 -500
441 -4 5 -9 9 -13 9 -4 0 -6 -142 -4 -316z"/>
<path d="M2411 2140 c1 -64 3 -77 9 -52 4 18 18 44 31 58 20 22 30 24 111 24
l88 0 0 -293 c0 -267 -2 -295 -17 -309 -10 -9 -27 -18 -38 -21 -11 -2 52 -5
140 -5 88 0 151 3 140 5 -11 3 -28 12 -37 21 -16 14 -18 42 -18 309 l0 293 89
0 c82 0 90 -2 114 -26 14 -14 28 -40 30 -57 2 -18 5 6 5 53 l2 85 -325 0 -325
0 1 -85z"/>
<path d="M3365 2220 c-137 -3 -240 -7 -227 -8 12 -1 31 -11 42 -22 19 -19 20
-33 20 -308 0 -314 -2 -326 -58 -335 -15 -2 95 -5 243 -6 l271 -1 18 88 c9 48
19 96 22 107 2 11 -5 0 -18 -24 -29 -60 -80 -108 -125 -120 -21 -6 -73 -11
-115 -11 l-78 0 0 135 0 135 79 0 c44 0 87 -3 96 -7 10 -3 26 -24 36 -47 l19
-41 0 120 0 120 -19 -42 c-22 -47 -30 -51 -131 -55 l-75 -3 -3 138 -3 137 105
0 c95 0 107 -2 130 -22 14 -13 29 -39 35 -58 8 -30 9 -22 10 53 1 64 -2 86
-11 85 -7 -1 -125 -5 -263 -8z"/>
<path d="M5161 2215 c-172 -49 -265 -164 -265 -330 0 -107 22 -171 84 -239 60
-65 139 -102 242 -116 218 -27 404 69 453 234 22 73 19 174 -6 243 -29 79
-113 162 -195 193 -78 29 -235 37 -313 15z m214 -44 c88 -41 133 -124 142
-259 10 -156 -40 -277 -132 -322 -65 -32 -158 -26 -209 14 -77 59 -110 142
-109 281 1 110 28 190 82 244 60 60 151 77 226 42z"/>
<path d="M6645 2211 c-73 -34 -106 -87 -107 -173 0 -83 24 -114 153 -195 161
-100 189 -126 189 -172 -1 -65 -47 -101 -130 -101 -94 0 -161 49 -184 136
l-13 49 -12 -30 c-7 -16 -15 -51 -18 -77 -5 -41 -3 -49 21 -71 52 -49 215 -66
312 -33 55 18 116 73 133 119 15 40 14 123 -3 155 -21 40 -49 62 -171 137
-139 85 -155 100 -155 142 0 112 228 122 258 11 9 -32 9 -32 15 -8 3 14 8 46
10 71 l4 46 -90 7 c-136 9 -168 7 -212 -13z"/>
<path d="M3796 2206 c17 -7 34 -21 38 -31 3 -9 6 -146 6 -304 0 -262 -2 -289
-17 -303 -10 -9 -27 -18 -38 -21 -11 -2 52 -5 140 -5 109 0 150 3 130 9 -55
16 -55 19 -55 331 l0 288 51 0 c30 0 63 -7 80 -17 104 -62 60 -273 -58 -273
l-35 0 31 -25 c16 -14 35 -42 41 -63 17 -51 73 -151 105 -184 57 -61 66 -63
350 -65 172 -1 250 1 229 7 -18 6 -36 21 -42 35 -16 34 -17 558 -1 586 6 12
25 27 42 34 29 13 16 14 -133 14 -140 0 -160 -2 -132 -12 18 -7 37 -19 42 -27
6 -8 10 -143 10 -306 0 -326 1 -324 -73 -324 -50 0 -85 33 -168 156 -37 56
-82 110 -98 120 -32 19 -32 34 -1 34 30 0 96 70 110 117 20 65 6 127 -38 171
-58 58 -90 64 -332 69 -191 3 -212 2 -184 -11z"/>
<path d="M5796 2206 c17 -7 34 -21 38 -31 3 -9 6 -144 6 -299 0 -303 -3 -319
-53 -329 -12 -2 48 -5 133 -5 138 -1 152 0 124 12 -17 8 -34 21 -38 31 -3 9
-6 145 -6 301 l0 284 55 0 c46 0 59 -4 89 -30 87 -77 39 -260 -69 -260 l-37 0
31 -25 c16 -14 35 -42 41 -63 17 -51 73 -151 105 -184 47 -50 81 -62 195 -65
75 -2 97 0 76 7 -16 5 -41 21 -56 35 -25 24 -46 52 -129 179 -14 21 -40 48
-58 60 -33 23 -34 36 -2 36 27 0 80 50 100 95 36 77 18 162 -42 207 -62 46
-92 51 -319 55 -191 3 -212 2 -184 -11z"/>
<path d="M5825 1473 c-19 -4 -20 -12 -20 -129 l0 -125 37 113 c21 62 41 121
44 131 5 17 -11 20 -61 10z"/>
<path d="M3455 1374 c-176 -71 -356 -134 -529 -185 -89 -26 -155 -48 -147 -48
62 -3 755 199 901 263 l35 15 -75 0 c-65 -1 -90 -7 -185 -45z"/>
<path d="M7615 1379 c39 -23 113 -63 165 -89 106 -53 379 -164 386 -157 2 2
-17 12 -43 22 -78 29 -251 119 -372 195 -98 61 -119 70 -160 70 l-46 0 70 -41z"/>
<path d="M2738 1133 c7 -3 16 -2 19 1 4 3 -2 6 -13 5 -11 0 -14 -3 -6 -6z"/>
<path d="M2698 1123 c7 -3 16 -2 19 1 4 3 -2 6 -13 5 -11 0 -14 -3 -6 -6z"/>
<path d="M1249 1011 c-71 -22 -99 -61 -99 -137 0 -40 5 -51 38 -84 79 -79 223
-54 221 39 l-1 36 -12 -34 c-36 -101 -162 -92 -181 13 -24 123 77 205 156 127
l29 -29 0 28 c0 25 -5 31 -37 39 -43 12 -77 13 -114 2z"/>
<path d="M3705 1011 l-80 -6 0 -128 0 -127 35 0 35 0 -3 60 -4 60 36 0 c23 0
39 -6 45 -17 8 -14 10 -8 10 27 0 35 -2 41 -10 28 -6 -12 -22 -18 -44 -18
l-35 0 0 55 0 55 33 0 c18 0 43 -7 55 -16 21 -14 22 -14 22 10 0 14 -3 25 -7
24 -5 -1 -44 -4 -88 -7z"/>
<path d="M5053 1009 c-66 -19 -106 -103 -83 -173 27 -83 149 -120 227 -69 17
11 23 25 23 52 l0 36 -19 -41 c-20 -43 -36 -54 -80 -54 -91 0 -131 152 -59
220 39 36 120 22 138 -23 8 -20 9 -19 9 10 1 29 -3 33 -36 42 -45 13 -76 13
-120 0z"/>
<path d="M7625 1011 l-80 -6 0 -128 0 -127 45 0 c34 0 41 3 32 12 -7 7 -12 34
-12 60 l0 48 35 0 c22 0 38 -6 44 -17 8 -15 10 -10 11 21 0 31 -3 37 -12 28
-7 -7 -27 -12 -45 -12 l-33 0 0 55 0 55 35 0 c22 0 43 -8 55 -20 l20 -20 0 30
c0 17 -3 29 -7 28 -5 -1 -44 -4 -88 -7z"/>
<path d="M1501 882 c-25 -53 -51 -105 -59 -114 -14 -16 -13 -18 10 -18 20 0
27 6 32 30 5 27 9 30 45 30 30 0 43 -5 51 -20 6 -11 8 -25 5 -30 -4 -6 13 -10
41 -10 38 0 44 2 35 14 -6 7 -34 59 -61 115 -27 55 -51 101 -52 101 -2 0 -23
-44 -47 -98z m59 -53 c0 -5 -13 -9 -30 -9 -35 0 -35 -1 -13 45 l17 35 13 -31
c7 -17 13 -35 13 -40z"/>
<path d="M1705 864 l0 -116 78 4 c64 3 81 7 93 23 21 29 17 61 -11 83 -20 16
-22 21 -10 26 9 3 15 18 15 35 0 39 -24 52 -104 57 l-61 3 0 -115z m105 76
c12 -23 5 -60 -13 -60 -6 0 -1 -9 11 -20 29 -28 28 -65 -3 -86 -13 -8 -29 -13
-35 -9 -6 3 -10 46 -10 101 0 87 2 94 20 94 10 0 24 -9 30 -20z"/>
<path d="M1935 863 l0 -113 35 0 35 0 0 113 0 113 -35 -1 -35 0 0 -112z"/>
<path d="M2068 865 l-3 -115 30 0 30 0 -3 71 c-4 83 -9 84 94 -8 39 -35 74
-63 78 -63 3 0 6 50 6 110 0 81 -3 110 -12 110 -7 0 -22 3 -33 6 -19 5 -20 1
-17 -65 2 -39 0 -71 -3 -71 -4 0 -43 32 -86 71 l-78 70 -3 -116z"/>
<path d="M2370 975 c-1 0 -2 -51 -3 -113 l-2 -113 79 3 c79 3 80 3 87 33 l8
30 -17 -23 c-12 -15 -29 -23 -57 -25 l-40 -2 -3 43 c-3 42 -3 42 32 42 19 0
37 -6 39 -12 3 -7 5 3 5 22 0 19 -2 29 -5 23 -2 -7 -20 -13 -39 -13 -34 0 -34
0 -34 45 l0 45 40 0 c27 0 42 -6 49 -17 9 -16 10 -15 11 8 0 26 -1 26 -75 25
-41 -1 -75 -1 -75 -1z"/>
<path d="M2550 953 c1 -24 2 -25 11 -10 6 10 22 17 40 17 l30 0 -3 -105 -3
-105 35 0 35 0 -3 105 -3 105 28 0 c16 0 34 -5 41 -12 9 -9 12 -7 12 10 0 21
-3 22 -110 22 l-110 0 0 -27z"/>
<path d="M2820 975 c-1 0 -2 -51 -3 -113 l-2 -112 30 0 30 0 -3 105 c-3 96 -2
105 15 105 10 0 24 -4 32 -9 20 -13 17 -63 -6 -80 -19 -15 -19 -16 5 -58 13
-24 32 -48 42 -53 21 -11 80 -13 65 -2 -5 4 -25 26 -44 50 -33 44 -33 44 -12
58 25 18 28 65 5 88 -8 9 -27 17 -42 17 -19 1 -103 4 -112 4z"/>
<path d="M3030 974 c0 -3 18 -32 41 -65 36 -54 40 -66 37 -110 l-3 -49 39 0
c31 0 37 3 28 12 -26 26 -14 81 33 151 44 65 45 67 20 65 -14 -1 -24 -7 -23
-13 2 -10 -39 -95 -46 -95 -3 0 -19 25 -36 55 -27 47 -36 55 -61 55 -16 0 -29
-2 -29 -6z"/>
<path d="M3845 863 l0 -113 40 0 c26 0 35 3 27 9 -11 6 -13 33 -10 112 l3 104
-30 0 -30 0 0 -112z"/>
<path d="M3975 864 l0 -114 30 0 30 0 -3 71 -4 72 30 -24 c16 -13 54 -45 84
-71 30 -27 57 -48 59 -48 2 0 4 51 4 113 l0 113 -30 0 -30 0 4 -75 3 -76 -73
65 c-41 36 -81 70 -89 77 -13 10 -15 -3 -15 -103z"/>
<path d="M4278 877 c3 -67 0 -102 -8 -112 -11 -13 -7 -15 26 -15 l39 0 0 113
0 112 -30 0 -30 0 3 -98z"/>
<path d="M4411 954 c-34 -44 -24 -67 49 -114 51 -33 59 -47 38 -68 -20 -20
-58 -13 -84 15 l-26 28 4 -29 c2 -24 9 -31 36 -38 44 -12 100 7 114 37 18 39
2 71 -49 101 -56 32 -66 44 -51 61 15 19 65 16 77 -4 9 -15 10 -14 11 10 0 26
-2 27 -49 27 -42 0 -53 -4 -70 -26z"/>
<path d="M4595 863 l0 -113 35 0 35 0 -3 50 -4 50 52 0 52 0 -4 -50 c-3 -50
-3 -50 27 -50 l30 0 0 115 0 115 -31 0 -31 0 5 -55 4 -55 -52 0 -52 0 4 53 3
52 -35 1 -35 1 0 -114z"/>
<path d="M5335 926 c-14 -31 -39 -83 -55 -116 l-30 -60 25 0 c15 0 23 4 20 10
-3 5 -1 19 5 30 8 15 21 20 51 20 36 0 40 -3 46 -30 5 -27 9 -30 42 -30 l37 0
-54 113 c-30 61 -56 114 -58 116 -2 2 -15 -21 -29 -53z m45 -98 c0 -5 -15 -8
-34 -8 l-34 0 16 41 16 41 17 -34 c10 -18 18 -36 19 -40z"/>
<path d="M5525 864 l0 -114 30 0 30 0 -3 105 c-3 97 -2 105 15 105 11 0 24 -5
31 -12 18 -18 15 -66 -7 -79 -17 -11 -17 -14 -3 -43 26 -54 52 -76 91 -76 29
0 32 2 20 13 -8 6 -27 29 -42 49 l-28 37 21 21 c11 11 20 31 20 43 0 41 -31
59 -107 62 l-68 3 0 -114z"/>
<path d="M5768 862 l-3 -112 35 0 35 0 -3 105 c-3 98 -2 105 16 105 46 0 57
-75 14 -96 -20 -10 -21 -12 -7 -18 30 -11 51 -6 73 17 27 29 28 61 2 87 -21
21 -32 23 -112 24 l-47 1 -3 -113z"/>
<path d="M5995 863 l0 -113 76 0 c61 0 78 3 83 16 11 29 6 37 -13 20 -10 -9
-35 -20 -55 -23 l-36 -6 0 47 c0 44 1 46 28 46 15 0 33 -5 40 -12 9 -9 12 -4
12 22 0 26 -3 31 -12 22 -7 -7 -25 -12 -40 -12 -27 0 -28 2 -28 46 l0 47 45
-5 c31 -4 45 -2 45 6 0 8 -23 12 -72 12 l-73 -1 0 -112z"/>
<path d="M6205 864 l0 -114 30 0 30 0 -3 72 c-4 70 -3 72 15 57 10 -8 48 -41
84 -72 36 -31 68 -57 70 -57 2 0 4 51 4 113 l0 113 -30 0 -30 -1 3 -74 4 -75
-74 65 c-40 35 -80 69 -88 76 -13 10 -15 -3 -15 -103z"/>
<path d="M6471 948 c0 -30 1 -31 9 -10 7 16 18 22 40 22 l31 0 -3 -105 -3
-105 35 0 35 0 -3 105 -3 105 28 0 c16 0 34 -5 41 -12 9 -9 12 -7 12 10 0 21
-3 22 -110 22 l-110 0 1 -32z"/>
<path d="M6735 864 l0 -114 39 0 c31 0 36 3 27 13 -6 8 -10 49 -8 103 2 73 5
89 18 92 9 2 24 -5 34 -14 19 -19 13 -61 -12 -79 -14 -10 -13 -16 6 -53 23
-46 46 -62 87 -62 l27 0 -19 23 c-11 12 -29 36 -41 53 -20 30 -21 31 -2 42 13
8 19 24 19 47 0 44 -22 56 -109 60 l-66 3 0 -114z"/>
<path d="M6950 976 c0 -3 18 -32 41 -66 36 -55 40 -67 37 -111 l-3 -49 35 0
35 0 -3 52 c-3 48 0 58 37 111 23 32 41 60 41 62 0 3 -12 5 -26 5 -14 0 -22
-4 -19 -10 6 -9 -41 -100 -52 -100 -2 0 -15 25 -29 55 -24 51 -28 55 -60 55
-19 0 -34 -2 -34 -4z"/>
<path d="M7805 973 l-30 -4 0 -109 0 -110 76 0 c61 0 78 3 83 16 11 29 6 37
-13 20 -10 -9 -35 -20 -56 -23 l-37 -6 4 112 c1 61 3 110 3 109 0 0 -13 -3
-30 -5z"/>
<path d="M8032 963 c-99 -48 -71 -196 41 -217 48 -9 108 8 136 38 30 32 38 94
18 133 -30 57 -126 80 -195 46z m129 -32 c29 -36 23 -126 -11 -153 -53 -43
-110 -9 -118 70 -9 103 72 156 129 83z"/>
<path d="M8345 966 c-41 -18 -65 -57 -65 -105 0 -128 206 -164 256 -44 45 107
-74 200 -191 149z m117 -24 c39 -33 30 -149 -12 -172 -57 -30 -110 11 -110 86
0 56 17 91 49 102 29 10 48 6 73 -16z"/>
<path d="M8598 863 l-3 -113 35 0 35 0 -3 105 c-3 97 -2 105 15 105 43 0 58
-57 24 -87 -18 -15 -19 -18 -4 -47 27 -54 54 -76 92 -76 29 0 32 2 20 13 -8 6
-27 29 -42 49 l-28 37 21 21 c25 25 26 51 2 80 -15 18 -29 22 -89 23 l-72 2
-3 -112z"/>
<path d="M8855 864 l0 -114 35 0 35 0 0 114 0 113 -35 0 -35 0 0 -113z"/>
<path d="M8995 864 l0 -114 30 0 30 0 -3 71 -4 72 30 -24 c16 -13 54 -45 84
-71 30 -27 57 -48 59 -48 2 0 4 51 4 113 l0 112 -30 2 -30 1 4 -76 3 -77 -73
65 c-41 36 -81 70 -89 77 -13 10 -15 -3 -15 -103z"/>
<path d="M9344 970 c-62 -25 -86 -129 -43 -183 23 -31 86 -51 126 -41 57 14
83 33 83 62 0 16 5 33 12 40 9 9 1 12 -37 11 -28 0 -44 -3 -37 -6 6 -2 12 -20
12 -39 0 -27 -5 -37 -25 -46 -81 -37 -140 95 -77 172 27 33 89 30 119 -5 l23
-26 0 26 c0 18 -7 28 -26 35 -31 12 -101 12 -130 0z"/>
</g>
</svg>
